<svg width="1280" height="534" viewBox="0 0 1280 534" fill="none" xmlns="http://www.w3.org/2000/svg">
<mask id="path-1-inside-1_77_2157" fill="white">
<path d="M47.548 329.167C61.0476 343.051 79.1675 351.505 98.4794 352.93C117.791 354.355 136.956 348.652 152.347 336.901C167.738 325.149 178.288 308.164 182.001 289.159C185.715 270.154 182.333 250.447 172.497 233.767C162.661 217.086 147.052 204.59 128.624 198.641C110.196 192.693 90.2265 193.705 72.4942 201.486C54.7619 209.267 40.4965 223.278 32.3971 240.867C24.2978 258.456 22.9261 278.404 28.5417 296.936L64.9671 285.899C62.0514 276.277 62.7635 265.919 66.9689 256.786C71.1743 247.654 78.5812 240.379 87.7882 236.339C96.9952 232.299 107.364 231.773 116.932 234.862C126.5 237.951 134.605 244.439 139.712 253.1C144.819 261.761 146.575 271.993 144.647 281.861C142.719 291.729 137.241 300.548 129.25 306.649C121.258 312.751 111.307 315.712 101.28 314.972C91.2531 314.232 81.8449 309.842 74.8356 302.634L47.548 329.167Z"/>
</mask>
<path d="M47.548 329.167C61.0476 343.051 79.1675 351.505 98.4794 352.93C117.791 354.355 136.956 348.652 152.347 336.901C167.738 325.149 178.288 308.164 182.001 289.159C185.715 270.154 182.333 250.447 172.497 233.767C162.661 217.086 147.052 204.59 128.624 198.641C110.196 192.693 90.2265 193.705 72.4942 201.486C54.7619 209.267 40.4965 223.278 32.3971 240.867C24.2978 258.456 22.9261 278.404 28.5417 296.936L64.9671 285.899C62.0514 276.277 62.7635 265.919 66.9689 256.786C71.1743 247.654 78.5812 240.379 87.7882 236.339C96.9952 232.299 107.364 231.773 116.932 234.862C126.5 237.951 134.605 244.439 139.712 253.1C144.819 261.761 146.575 271.993 144.647 281.861C142.719 291.729 137.241 300.548 129.25 306.649C121.258 312.751 111.307 315.712 101.28 314.972C91.2531 314.232 81.8449 309.842 74.8356 302.634L47.548 329.167Z" stroke="#95C5B2" stroke-opacity="0.4" stroke-width="31.25" mask="url(#path-1-inside-1_77_2157)"/>
<mask id="path-2-inside-2_77_2157" fill="white">
<path d="M251.664 164.332C276.607 198.963 288.918 241.102 286.542 283.714C284.166 326.327 267.247 366.836 238.608 398.479C209.969 430.122 171.343 450.986 129.178 457.587C87.013 464.188 43.8593 456.128 6.91973 434.752C-30.0198 413.375 -58.5102 379.976 -73.7962 340.129C-89.0821 300.281 -90.2387 256.396 -77.073 215.799C-63.9072 175.202 -37.2157 140.348 -1.45341 117.056C34.3089 93.763 76.9781 83.4409 119.433 87.812L114.212 138.521C83.3613 135.344 52.355 142.845 26.3678 159.771C0.380528 176.697 -19.0153 202.024 -28.5824 231.524C-38.1495 261.025 -37.3091 292.915 -26.2013 321.871C-15.0935 350.826 5.60951 375.097 32.4522 390.63C59.295 406.164 90.6534 412.021 121.293 407.224C151.933 402.427 180.001 387.266 200.812 364.272C221.623 341.278 233.918 311.841 235.644 280.876C237.371 249.911 228.425 219.291 210.299 194.125L251.664 164.332Z"/>
</mask>
<path d="M251.664 164.332C276.607 198.963 288.918 241.102 286.542 283.714C284.166 326.327 267.247 366.836 238.608 398.479C209.969 430.122 171.343 450.986 129.178 457.587C87.013 464.188 43.8593 456.128 6.91973 434.752C-30.0198 413.375 -58.5102 379.976 -73.7962 340.129C-89.0821 300.281 -90.2387 256.396 -77.073 215.799C-63.9072 175.202 -37.2157 140.348 -1.45341 117.056C34.3089 93.763 76.9781 83.4409 119.433 87.812L114.212 138.521C83.3613 135.344 52.355 142.845 26.3678 159.771C0.380528 176.697 -19.0153 202.024 -28.5824 231.524C-38.1495 261.025 -37.3091 292.915 -26.2013 321.871C-15.0935 350.826 5.60951 375.097 32.4522 390.63C59.295 406.164 90.6534 412.021 121.293 407.224C151.933 402.427 180.001 387.266 200.812 364.272C221.623 341.278 233.918 311.841 235.644 280.876C237.371 249.911 228.425 219.291 210.299 194.125L251.664 164.332Z" stroke="#95C5B2" stroke-opacity="0.4" stroke-width="31.25" mask="url(#path-2-inside-2_77_2157)"/>
<mask id="path-3-inside-3_77_2157" fill="white">
<path d="M1195.83 304.027C1206.72 288.015 1211.36 268.567 1208.88 249.362C1206.4 230.157 1196.96 212.528 1182.36 199.81C1167.76 187.091 1149 180.166 1129.64 180.345C1110.27 180.523 1091.65 187.792 1077.28 200.777C1062.92 213.762 1053.81 231.562 1051.68 250.81C1049.55 270.057 1054.55 289.416 1065.74 305.225C1076.92 321.034 1093.51 332.196 1112.37 336.599C1131.22 341.002 1151.04 338.34 1168.07 329.118L1149.94 295.65C1141.1 300.439 1130.81 301.821 1121.02 299.535C1111.23 297.249 1102.62 291.453 1096.81 283.245C1091 275.037 1088.41 264.985 1089.51 254.991C1090.62 244.997 1095.34 235.755 1102.8 229.013C1110.26 222.271 1119.93 218.497 1129.99 218.404C1140.04 218.312 1149.78 221.907 1157.36 228.511C1164.94 235.114 1169.84 244.268 1171.13 254.239C1172.42 264.211 1170.01 274.309 1164.35 282.623L1195.83 304.027Z"/>
</mask>
<path d="M1195.83 304.027C1206.72 288.015 1211.36 268.567 1208.88 249.362C1206.4 230.157 1196.96 212.528 1182.36 199.81C1167.76 187.091 1149 180.166 1129.64 180.345C1110.27 180.523 1091.65 187.792 1077.28 200.777C1062.92 213.762 1053.81 231.562 1051.68 250.81C1049.55 270.057 1054.55 289.416 1065.74 305.225C1076.92 321.034 1093.51 332.196 1112.37 336.599C1131.22 341.002 1151.04 338.34 1168.07 329.118L1149.94 295.65C1141.1 300.439 1130.81 301.821 1121.02 299.535C1111.23 297.249 1102.62 291.453 1096.81 283.245C1091 275.037 1088.41 264.985 1089.51 254.991C1090.62 244.997 1095.34 235.755 1102.8 229.013C1110.26 222.271 1119.93 218.497 1129.99 218.404C1140.04 218.312 1149.78 221.907 1157.36 228.511C1164.94 235.114 1169.84 244.268 1171.13 254.239C1172.42 264.211 1170.01 274.309 1164.35 282.623L1195.83 304.027Z" stroke="#95C5B2" stroke-opacity="0.4" stroke-width="31.25" mask="url(#path-3-inside-3_77_2157)"/>
<mask id="path-4-inside-4_77_2157" fill="white">
<path d="M993.365 137.165C1022.28 105.776 1061.09 85.2547 1103.31 79.0265C1145.53 72.7982 1188.62 81.2397 1225.36 102.942C1262.11 124.644 1290.31 158.294 1305.24 198.275C1320.17 238.256 1320.94 282.149 1307.42 322.629C1293.89 363.108 1266.89 397.724 1230.93 420.7C1194.96 443.675 1152.2 453.619 1109.79 448.873C1067.37 444.127 1027.87 424.977 997.872 394.619C967.874 364.262 949.195 324.534 944.953 282.067L995.677 277C998.759 307.86 1012.33 336.729 1034.13 358.788C1055.93 380.848 1084.64 394.763 1115.46 398.213C1146.28 401.662 1177.35 394.435 1203.49 377.74C1229.62 361.044 1249.24 335.89 1259.07 306.475C1268.9 277.06 1268.34 245.164 1257.49 216.111C1246.63 187.058 1226.15 162.606 1199.44 146.836C1172.74 131.066 1141.43 124.932 1110.75 129.457C1080.07 133.983 1051.87 148.895 1030.86 171.704L993.365 137.165Z"/>
</mask>
<path d="M993.365 137.165C1022.28 105.776 1061.09 85.2547 1103.31 79.0265C1145.53 72.7982 1188.62 81.2397 1225.36 102.942C1262.11 124.644 1290.31 158.294 1305.24 198.275C1320.17 238.256 1320.94 282.149 1307.42 322.629C1293.89 363.108 1266.89 397.724 1230.93 420.7C1194.96 443.675 1152.2 453.619 1109.79 448.873C1067.37 444.127 1027.87 424.977 997.872 394.619C967.874 364.262 949.195 324.534 944.953 282.067L995.677 277C998.759 307.86 1012.33 336.729 1034.13 358.788C1055.93 380.848 1084.64 394.763 1115.46 398.213C1146.28 401.662 1177.35 394.435 1203.49 377.74C1229.62 361.044 1249.24 335.89 1259.07 306.475C1268.9 277.06 1268.34 245.164 1257.49 216.111C1246.63 187.058 1226.15 162.606 1199.44 146.836C1172.74 131.066 1141.43 124.932 1110.75 129.457C1080.07 133.983 1051.87 148.895 1030.86 171.704L993.365 137.165Z" stroke="#95C5B2" stroke-opacity="0.4" stroke-width="31.25" mask="url(#path-4-inside-4_77_2157)"/>
</svg>
